<svg xmlns="http://www.w3.org/2000/svg" viewBox="0 0 420.57 663.55"><defs><style>.cls-1{fill:#c81042;}.cls-2{fill:#ff366d;}.cls-3{fill:#e32357;}</style></defs><g id="Layer_1" data-name="Layer 1"><path class="cls-1" d="M210.28,682"/></g><g id="Layer_2" data-name="Layer 2"><path class="cls-1" d="M104.05,439.51"/><path class="cls-2" d="M301.47,20.75a528.72,528.72,0,0,0-90.68,48.63l-.51-4.13-.6,4.87A532.91,532.91,0,0,0,19.1,297.9C7.27,262.44,0,231.88,0,210.28,0,94.15,94.15,0,210.28,0A209.42,209.42,0,0,1,301.47,20.75Z"/><path class="cls-3" d="M209.68,70.12l-10.29,83.64S172.6,158.67,168.63,187a155.21,155.21,0,0,0-51.95,26.93H99.87s.54,15.1,14.51,15.1c0,0,5.46,70.54,28.18,97A404.73,404.73,0,0,0,98.93,486.9C68,422.45,37.83,354,19.1,297.9A532.91,532.91,0,0,1,209.68,70.12Z"/><path class="cls-1" d="M189.14,663.55c-21.46-39.8-56.28-105.84-90.21-176.65A404.73,404.73,0,0,1,142.56,326c5.25,6.09,11.41,9.84,18.62,9.84h11.47Z"/><path class="cls-3" d="M399.15,117.74a405.75,405.75,0,0,0-142.39,70.75c-1.59-.52-3.19-1-4.83-1.49-4-28.33-30.76-33.24-30.76-33.24L210.79,69.38a528.72,528.72,0,0,1,90.68-48.63A211,211,0,0,1,399.15,117.74Z"/><path class="cls-1" d="M420.57,210.28c0,93.34-135.81,354.36-189.14,453.27l16.49-327.7h11.46c38.54,0,46.8-106.82,46.8-106.82,14,0,14.51-15.1,14.51-15.1H303.88a155.21,155.21,0,0,0-47.12-25.44,405.75,405.75,0,0,1,142.39-70.75h0A209.33,209.33,0,0,1,420.57,210.28Z"/></g></svg>