<svg id="Layer_1" data-name="Layer 1" xmlns="http://www.w3.org/2000/svg" viewBox="0 0 32.47 32.47" height="40px" width="40px"><defs><style>.cls-1{fill:#c81042;}</style></defs><path class="cls-1" d="M23.44,15.39a.94.94,0,0,0-1.32,0l-5.3,5.3L14.5,18.37a.93.93,0,0,0-1.24,0,.92.92,0,0,0-.06,1.31l3.61,3.65,6.64-6.64h0A.94.94,0,0,0,23.44,15.39Z" transform="translate(-1.76 -1.76)"/><path class="cls-1" d="M18,1.76A16.24,16.24,0,1,0,34.24,18,16.24,16.24,0,0,0,18,1.76Zm4.8,5.63a.69.69,0,0,1,1.38,0v4.12a.69.69,0,0,1-1.38,0Zm-11,0a.69.69,0,0,1,1.38,0v4.12a.69.69,0,0,1-1.38,0ZM29,26.05h0a1.22,1.22,0,0,1-1.2,1.24H8.22A1.22,1.22,0,0,1,7,26.05V10.66A1.22,1.22,0,0,1,8.26,9.45H11v2.06a1.51,1.51,0,0,0,3,0V9.45h8v2.06a1.51,1.51,0,0,0,3,0V9.45h2.75A1.23,1.23,0,0,1,29,10.69Z" transform="translate(-1.76 -1.76)"/></svg>