<svg id="Layer_1" data-name="Layer 1" xmlns="http://www.w3.org/2000/svg" viewBox="0 0 468.4 468.4" height="40px" width="40px"><defs><style>.cls-1{fill:#fff;fill-rule:evenodd;}</style></defs><circle cx="234.2" cy="234.2" r="234.2"/><path class="cls-1" d="M235.46,248l23.94-29.35c5.45-7,2.88-12.66-.7-27.75-2.63-11.17-.56-23.77,7.33-32.05,22.58-23.64,68.5-69.73,68.5-69.73l6.05,4.74-47.34,60.62,10.13,7.91L353,103.54l6.14,4.78-45.61,62,10.12,7.92,49.81-58.71,5.68,4.44-45.36,62.18,10.14,7.91,47.35-60.61,5.55,4.33s-32.69,55.9-50,83.78c-6.14,9.89-18.27,14.89-29.93,15-15.52.09-21.6-1.14-27.14,6l-29.24,35.83c31.35,38,58.45,70.91,71.45,87.55,9.88,12.66.83,31-15.36,31a18.65,18.65,0,0,1-15-7.34L194.47,260.41s-11.87,9.22-24.92,19.46C128.88,213.41,89.2,130.37,89.2,101c0-1.64-.43-11.84,9.39-11.84a11.09,11.09,0,0,1,8.64,4.41c6.52,8.23,69.42,83.5,128.23,154.47m-37.85,46.37,25,30.32L169.89,389.5a19.17,19.17,0,0,1-15.15,7.38c-15.36,0-25.52-18-15.24-31.13Z" transform="translate(-5.8 -5.8)"/></svg>